<?xml version="1.0" standalone="no"?>
<!DOCTYPE svg PUBLIC "-//W3C//DTD SVG 20010904//EN"
 "http://www.w3.org/TR/2001/REC-SVG-20010904/DTD/svg10.dtd">
<svg version="1.0" xmlns="http://www.w3.org/2000/svg"
 width="260.000000pt" height="260.000000pt" viewBox="0 0 260.000000 260.000000"
 preserveAspectRatio="xMidYMid meet">
<metadata>
Created by potrace 1.11, written by Peter Selinger 2001-2013
</metadata>
<g transform="translate(0.000000,260.000000) scale(0.100000,-0.100000)"
fill="#000000" stroke="none">
<path d="M106 2489 c-38 -4 -54 -12 -72 -35 -24 -29 -24 -33 -24 -256 l0 -228
29 -32 29 -33 1232 0 1232 0 29 33 29 32 0 220 c0 120 -4 230 -10 244 -5 14
-21 33 -35 42 -24 16 -115 17 -1208 18 -650 1 -1204 -2 -1231 -5z"/>
<path d="M158 1783 c-14 -9 -31 -27 -37 -40 -15 -34 -15 -1543 0 -1576 6 -13
23 -31 39 -40 26 -16 121 -17 1140 -17 1019 0 1114 1 1140 17 16 9 33 27 39
40 8 17 11 261 11 793 l0 770 -29 32 -29 33 -1124 2 c-1033 2 -1125 1 -1150
-14z m1389 -292 c28 -14 53 -61 53 -97 0 -16 -12 -38 -34 -60 l-34 -34 -226 0
c-140 0 -234 4 -249 11 -29 13 -57 58 -57 91 0 36 36 87 67 94 15 3 32 7 36 8
4 0 101 1 215 0 140 0 214 -4 229 -13z"/>
</g>
</svg>
